<svg width="3162.208309618669" height="725.2910119129147" xmlns="http://www.w3.org/2000/svg" version="1.1">
 <g>
  <title>Layer 1</title>
  <g id="svg_1" transform="scale(8.11042) translate(10, 10)">

   <g fill="#fff" transform="matrix(0.9679405764090014,0,0,0.9679405764090014,-2.3444009339029757,-13.683444617002616)" featureKey="5TMTKC-0" id="SvgjsG1022">
    <g id="svg_2" xmlns="http://www.w3.org/2000/svg">
     <path id="svg_3" stroke-miterlimit="4" stroke-width="5" fill="#ffffff" d="m49.41393,14.1367a35.86351,35.86351 0 0 0 -35.86438,35.86432a35.86351,35.86351 0 0 0 35.86438,35.8623a35.86351,35.86351 0 0 0 35.86438,-35.8623a35.86351,35.86351 0 0 0 -35.86438,-35.86432zm-7.16796,8.07822a30.77653,28.76426 73.136072 0 1 30.23961,26.9498a30.77653,28.76426 73.136072 0 1 -24.04676,34.0506a30.77653,28.76426 73.136072 0 1 -33.11574,-26.7352a30.77653,28.76426 73.136072 0 1 24.04676,-34.05049a30.77653,28.76426 73.136072 0 1 2.87613,-0.21471z"/>
     <path id="svg_4" stroke-miterlimit="4" stroke-width="5" fill="#ffffff" d="m45.87085,34.58492c-26.17846,7.01446 -45.54962,19.6066 -43.26594,28.1246c1.30962,4.7933 5.37408,7.47 17.87861,7.2411c-9.72365,-0.2296 -11.84969,-2.6114 -12.9266,-6.5563c-2.0687,-7.7186 15.48406,-19.12846 39.20485,-25.4844c23.72089,-6.35606 44.62702,-5.25117 46.6946,2.46773c1.04579,3.9846 -3.17121,9.17397 -11.59372,14.26737c11.06553,-6.085 16.81707,-12.50145 15.53995,-17.33635c-2.28122,-8.51878 -25.35321,-9.73831 -51.53175,-2.72375z"/>
    </g>
   </g>
   <g fill="#fff" transform="matrix(3.5640510595188104,0,0,3.5640510595188104,107.93698184313271,-14.300628872611075)" featureKey="7UBp9i-0" id="SvgjsG1023">
    <path fill="#ffffff" id="svg_5" d="m1.14,20l0,-12.24l5.8,0c2.28,0 4.22,1.72 4.22,4.02c0,2.32 -2,4.02 -4.22,4.02l-2.8,0l0,4.2l-3,0zm5.8,-9.46l-2.8,0l0,2.48l2.8,0c0.7,0 1.22,-0.54 1.22,-1.24s-0.52,-1.24 -1.22,-1.24zm5.72,-2.78l9.1,0l0,2.78l-6.1,0l0,1.96l4.9,0l0,2.78l-4.9,0l0,1.94l6.1,0l0,2.78l-9.1,0l0,-12.24zm13.8,2.82l0,2.92l2.8,0c0.92,0 1.46,-0.54 1.46,-1.46s-0.54,-1.46 -1.46,-1.46l-2.8,0zm4.54,4.9c0.56,0.76 1.12,1.52 1.7,2.26c0.56,0.74 1.12,1.5 1.68,2.26l-3.66,0c-0.72,-0.96 -1.42,-1.92 -2.12,-2.88c-0.7,-0.94 -1.42,-1.9 -2.14,-2.86l0,5.74l-3,0l0,-12.24l5.8,0c2.28,0 4.22,1.74 4.22,4.04c0,1.62 -1,3.04 -2.48,3.68zm4.62,-7.72l3,0l0,12.24l-3,0l0,-12.24zm16.08,4.74l0,6.8c-1.42,0.54 -3.2,0.84 -4.72,0.84c-3.9,0 -6.52,-2.34 -6.52,-6.2c0,-4.22 3.14,-6.28 6.98,-6.28c0.26,0 0.54,0 0.86,0.02c0.3,0.02 0.62,0.06 0.96,0.08c0.62,0.08 1.24,0.16 1.84,0.34l0,3.06c-0.22,-0.1 -0.46,-0.18 -0.74,-0.26c-0.3,-0.06 -0.6,-0.12 -0.92,-0.18c-0.64,-0.12 -1.32,-0.16 -1.98,-0.16c-2.54,0 -4,0.78 -4,3.38c0,2.54 1.34,3.3 3.62,3.3c0.24,0 0.5,-0.02 0.78,-0.04c0.26,-0.02 0.54,-0.04 0.84,-0.06l0,-1.86l-2.6,0l0,-2.78l5.6,0zm1.9,-4.74l9.1,0l0,2.78l-6.1,0l0,1.96l4.9,0l0,2.78l-4.9,0l0,1.94l6.1,0l0,2.78l-9.1,0l0,-12.24zm10.8,0l9.1,0l0,2.78l-6.1,0l0,1.96l4.9,0l0,2.78l-4.9,0l0,1.94l6.1,0l0,2.78l-9.1,0l0,-12.24z"/>
   </g>
  </g>
 </g>
</svg>